<svg width="500" height="500" viewBox="0 0 500 500" fill="none" xmlns="http://www.w3.org/2000/svg">
<rect x="56" y="50" width="400" height="400" rx="38" fill="white" fill-opacity="0.65"/>
<path d="M357.617 214.023H306.289C305.352 207.383 303.438 201.484 300.547 196.328C297.656 191.094 293.945 186.641 289.414 182.969C284.883 179.297 279.648 176.484 273.711 174.531C267.852 172.578 261.484 171.602 254.609 171.602C242.188 171.602 231.367 174.687 222.148 180.859C212.93 186.953 205.781 195.859 200.703 207.578C195.625 219.219 193.086 233.359 193.086 250C193.086 267.109 195.625 281.484 200.703 293.125C205.859 304.766 213.047 313.555 222.266 319.492C231.484 325.43 242.148 328.398 254.258 328.398C261.055 328.398 267.344 327.5 273.125 325.703C278.984 323.906 284.18 321.289 288.711 317.852C293.242 314.336 296.992 310.078 299.961 305.078C303.008 300.078 305.117 294.375 306.289 287.969L357.617 288.203C356.289 299.219 352.969 309.844 347.656 320.078C342.422 330.234 335.352 339.336 326.445 347.383C317.617 355.352 307.07 361.68 294.805 366.367C282.617 370.977 268.828 373.281 253.438 373.281C232.031 373.281 212.891 368.437 196.016 358.75C179.219 349.062 165.938 335.039 156.172 316.68C146.484 298.32 141.641 276.094 141.641 250C141.641 223.828 146.563 201.562 156.406 183.203C166.25 164.844 179.609 150.859 196.484 141.25C213.359 131.562 232.344 126.719 253.438 126.719C267.344 126.719 280.234 128.672 292.109 132.578C304.063 136.484 314.648 142.187 323.867 149.687C333.086 157.109 340.586 166.211 346.367 176.992C352.227 187.773 355.977 200.117 357.617 214.023Z" fill="black"/>
<ellipse cx="256" cy="249.5" rx="24" ry="28.5" fill="#545454"/>
</svg>
